<mxfile host="app.diagrams.net" modified="2023-12-12T15:01:01.687Z" agent="Mozilla/5.0 (Windows NT 10.0; Win64; x64) AppleWebKit/537.36 (KHTML, like Gecko) Chrome/120.0.0.0 Safari/537.36" etag="XUiX7kQcNwcsuAEps7uJ" version="22.1.7" type="device">
  <diagram name="Página-1" id="_XrwZ30x4RaDxff93kol">
    <mxGraphModel dx="1035" dy="555" grid="1" gridSize="10" guides="1" tooltips="1" connect="1" arrows="1" fold="1" page="1" pageScale="1" pageWidth="827" pageHeight="1169" math="0" shadow="0">
      <root>
        <mxCell id="0" />
        <mxCell id="1" parent="0" />
        <mxCell id="z5d4uO3TwQ2tIqtIXE2f-2" value="" style="endArrow=classic;html=1;rounded=0;" edge="1" parent="1">
          <mxGeometry width="50" height="50" relative="1" as="geometry">
            <mxPoint x="260" y="110" as="sourcePoint" />
            <mxPoint x="280" y="60" as="targetPoint" />
          </mxGeometry>
        </mxCell>
        <mxCell id="z5d4uO3TwQ2tIqtIXE2f-27" style="edgeStyle=orthogonalEdgeStyle;rounded=1;orthogonalLoop=1;jettySize=auto;html=1;entryX=0.5;entryY=0;entryDx=0;entryDy=0;" edge="1" parent="1" source="z5d4uO3TwQ2tIqtIXE2f-3" target="z5d4uO3TwQ2tIqtIXE2f-24">
          <mxGeometry relative="1" as="geometry" />
        </mxCell>
        <mxCell id="z5d4uO3TwQ2tIqtIXE2f-3" value="" style="rhombus;whiteSpace=wrap;html=1;" vertex="1" parent="1">
          <mxGeometry x="345" y="305" width="150" height="110" as="geometry" />
        </mxCell>
        <mxCell id="z5d4uO3TwQ2tIqtIXE2f-4" value="" style="ellipse;whiteSpace=wrap;html=1;aspect=fixed;" vertex="1" parent="1">
          <mxGeometry x="395" y="60" width="50" height="50" as="geometry" />
        </mxCell>
        <mxCell id="z5d4uO3TwQ2tIqtIXE2f-7" value="" style="rounded=1;whiteSpace=wrap;html=1;" vertex="1" parent="1">
          <mxGeometry x="360" y="190" width="120" height="60" as="geometry" />
        </mxCell>
        <mxCell id="z5d4uO3TwQ2tIqtIXE2f-8" value="agendar&lt;br&gt;consulta" style="text;html=1;align=center;verticalAlign=middle;resizable=0;points=[];autosize=1;strokeColor=none;fillColor=none;" vertex="1" parent="1">
          <mxGeometry x="385" y="200" width="70" height="40" as="geometry" />
        </mxCell>
        <mxCell id="z5d4uO3TwQ2tIqtIXE2f-9" value="" style="endArrow=classic;html=1;rounded=0;exitX=0.5;exitY=1;exitDx=0;exitDy=0;" edge="1" parent="1" source="z5d4uO3TwQ2tIqtIXE2f-7" target="z5d4uO3TwQ2tIqtIXE2f-3">
          <mxGeometry width="50" height="50" relative="1" as="geometry">
            <mxPoint x="270" y="120" as="sourcePoint" />
            <mxPoint x="420" y="310" as="targetPoint" />
          </mxGeometry>
        </mxCell>
        <mxCell id="z5d4uO3TwQ2tIqtIXE2f-11" value="" style="endArrow=classic;html=1;rounded=0;entryX=0.5;entryY=0;entryDx=0;entryDy=0;" edge="1" parent="1" source="z5d4uO3TwQ2tIqtIXE2f-4" target="z5d4uO3TwQ2tIqtIXE2f-7">
          <mxGeometry width="50" height="50" relative="1" as="geometry">
            <mxPoint x="270" y="120" as="sourcePoint" />
            <mxPoint x="290" y="70" as="targetPoint" />
          </mxGeometry>
        </mxCell>
        <mxCell id="z5d4uO3TwQ2tIqtIXE2f-14" value="Verificar horário &lt;br&gt;de atendimento" style="text;html=1;align=center;verticalAlign=middle;resizable=0;points=[];autosize=1;strokeColor=none;fillColor=none;" vertex="1" parent="1">
          <mxGeometry x="365" y="340" width="110" height="40" as="geometry" />
        </mxCell>
        <mxCell id="z5d4uO3TwQ2tIqtIXE2f-19" value="" style="rounded=1;whiteSpace=wrap;html=1;" vertex="1" parent="1">
          <mxGeometry x="515" y="430" width="130" height="60" as="geometry" />
        </mxCell>
        <mxCell id="z5d4uO3TwQ2tIqtIXE2f-20" value="Confirmar Atendimento&lt;br&gt;médico" style="text;html=1;align=center;verticalAlign=middle;resizable=0;points=[];autosize=1;strokeColor=none;fillColor=none;" vertex="1" parent="1">
          <mxGeometry x="505" y="440" width="150" height="40" as="geometry" />
        </mxCell>
        <mxCell id="z5d4uO3TwQ2tIqtIXE2f-22" value="" style="endArrow=classic;html=1;exitX=1;exitY=0.5;exitDx=0;exitDy=0;entryX=0.5;entryY=0;entryDx=0;entryDy=0;rounded=1;" edge="1" parent="1" source="z5d4uO3TwQ2tIqtIXE2f-3" target="z5d4uO3TwQ2tIqtIXE2f-19">
          <mxGeometry width="50" height="50" relative="1" as="geometry">
            <mxPoint x="400" y="460" as="sourcePoint" />
            <mxPoint x="450" y="410" as="targetPoint" />
            <Array as="points">
              <mxPoint x="580" y="360" />
            </Array>
          </mxGeometry>
        </mxCell>
        <mxCell id="z5d4uO3TwQ2tIqtIXE2f-24" value="" style="rounded=1;whiteSpace=wrap;html=1;" vertex="1" parent="1">
          <mxGeometry x="200" y="430" width="130" height="60" as="geometry" />
        </mxCell>
        <mxCell id="z5d4uO3TwQ2tIqtIXE2f-28" style="edgeStyle=orthogonalEdgeStyle;rounded=0;orthogonalLoop=1;jettySize=auto;html=1;" edge="1" parent="1">
          <mxGeometry relative="1" as="geometry">
            <mxPoint x="265" y="570" as="targetPoint" />
            <mxPoint x="265" y="490" as="sourcePoint" />
          </mxGeometry>
        </mxCell>
        <mxCell id="z5d4uO3TwQ2tIqtIXE2f-25" value="Negar Atendimento&lt;br style=&quot;border-color: var(--border-color);&quot;&gt;médico" style="text;html=1;align=center;verticalAlign=middle;resizable=0;points=[];autosize=1;strokeColor=none;fillColor=none;" vertex="1" parent="1">
          <mxGeometry x="200" y="440" width="130" height="40" as="geometry" />
        </mxCell>
      </root>
    </mxGraphModel>
  </diagram>
</mxfile>
